# xmcd
#
# Track frame offsets:
#	150
#	15089
#	24968
#	38078
#	55970
#	83922
#	93425
#	107363
#	123515
#	136434
#	148719
#	161662
#	174534
#	185876
#	196868
#	206188
#	222650
#	234792
#	249436
#	262011
#	273829
#	293280
#	307543
#	320316
#	333561
#
# Disc length: 4618 seconds
#
# Revision: 2
# Processed by: cddbd v1.5.2PL0 Copyright (c) Steve Scherf et al.
# Submitted via: audiograbber 1.83.01
#
DISCID=58120819
DTITLE=Various Artist - Soul Goes Country - CD 1
DYEAR=1900
DGENRE=Country
TTITLE0=Esther Phillips - Release Me
TTITLE1=Joe Tex - King Of The Road
TTITLE2=Little Willie John - She Thinks I Still Care
TTITLE3=Little Milton - Behind Closed Doors
TTITLE4=Al Green - For The Good Times
TTITLE5=Ray Charles - Busted
TTITLE6=Percy Sledge - Love Me Tender
TTITLE7=Denise LaSalle - Harper Valley P.T.A
TTITLE8=Candi Staton - Stand By Your Man
TTITLE9=Solomon Burke - Just Out Of Reach (Of My Two Of My Two
TTITLE10=Timi Yuro - I'm Movin' On
TTITLE11=William Bell - Everybody Loves A Winner
TTITLE12=Betty Swann - Don't Touch Me
TTITLE13=Bobby Bland - Who Will The Next Fool Be
TTITLE14=Big Al Downing - Cornbread Row
TTITLE15=Dorythy Moore - Misty Blue
TTITLE16=Joe Simon - The Chokin' Kind
TTITLE17=Ray Charles - Born To Lose
TTITLE18=Solomon Burke - Tonight's The Night
TTITLE19=Arthur Alexander - Burning Love
TTITLE20=Aretha Franklin - You Are My Sunshine
TTITLE21=Joe Tex - Hold What You've Got
TTITLE22=June Edwards - You Ain't Woman Enough (To Tak
TTITLE23=Dobie Gray - Rose Garden
TTITLE24=Johnny Adams - Release Me
EXTD=
EXTT0=
EXTT1=
EXTT2=
EXTT3=
EXTT4=
EXTT5=
EXTT6=
EXTT7=
EXTT8=
EXTT9=
EXTT10=
EXTT11=
EXTT12=
EXTT13=
EXTT14=
EXTT15=
EXTT16=
EXTT17=
EXTT18=
EXTT19=
EXTT20=
EXTT21=
EXTT22=
EXTT23=
EXTT24=
PLAYORDER=
